<svg width="174" height="75" viewBox="0 0 174 75" fill="none" xmlns="http://www.w3.org/2000/svg">
<g filter="url(#filter0_d_36_1063)">
<path d="M161.989 56.5873C159.622 56.1138 156.466 52.7478 154.399 51.4078C151.203 49.3369 147.802 47.4059 144.129 46.3176C139.175 44.8499 139.083 51.8901 135.333 49.2646C132.191 47.0656 126.773 42.0377 123.054 41.3614C120.717 40.9366 120.276 42.5132 118.99 44.0851C116.136 47.5742 114.174 46.3747 110.998 43.3706C101.887 34.7518 92.6478 26.6583 85.011 16.7587C84.6519 16.2932 81.7407 12.699 81.6175 14.794C81.3089 20.0409 81.8203 25.1687 80.4119 30.3326C79.1881 34.8199 77.9911 38.5993 76.1701 42.9241C74.5536 46.7632 72.3525 40.2451 70.0082 38.9056C68.45 38.0151 68.758 37.2705 68.758 40.0665C68.758 43.1091 67.2759 40.4248 65.5878 38.9056C62.6693 36.2789 61.699 34.4085 60.6762 39.3521C60.222 41.5473 58.9614 45.9338 57.3274 47.5678C56.8453 48.0499 54.9562 43.824 54.7376 43.5493C51.3857 39.3354 48.0306 35.2187 44.8251 30.8684C41.5822 26.4673 39.2495 20.5271 37.0112 15.5531C35.8081 12.8795 35.1405 8.59222 33.0372 6.48894C32.4009 5.85264 32.4357 9.51558 32.4121 9.70381C31.8733 14.0146 30.5535 18.1622 29.4205 22.34C27.6511 28.8647 25.3011 35.3928 24.5536 42.1204C24.3854 43.6338 18.28 42.9241 16.9182 42.9241C15.7166 42.9241 14.1008 42.6384 12.9443 42.9688C11.8995 43.2673 12.9243 45.5239 11.6941 46.139" stroke="#F60000" stroke-width="3" stroke-linecap="round"/>
</g>
<defs>
<filter id="filter0_d_36_1063" x="0.193848" y="0.914612" width="173.296" height="73.173" filterUnits="userSpaceOnUse" color-interpolation-filters="sRGB">
<feFlood flood-opacity="0" result="BackgroundImageFix"/>
<feColorMatrix in="SourceAlpha" type="matrix" values="0 0 0 0 0 0 0 0 0 0 0 0 0 0 0 0 0 0 127 0" result="hardAlpha"/>
<feOffset dy="6"/>
<feGaussianBlur stdDeviation="5"/>
<feComposite in2="hardAlpha" operator="out"/>
<feColorMatrix type="matrix" values="0 0 0 0 0.964706 0 0 0 0 0 0 0 0 0 0 0 0 0 1 0"/>
<feBlend mode="normal" in2="BackgroundImageFix" result="effect1_dropShadow_36_1063"/>
<feBlend mode="normal" in="SourceGraphic" in2="effect1_dropShadow_36_1063" result="shape"/>
</filter>
</defs>
</svg>
