<svg width="174" height="75" viewBox="0 0 174 75" fill="none" xmlns="http://www.w3.org/2000/svg">
<g filter="url(#filter0_d_37_24)">
<path d="M11.6941 56.5873C14.0616 56.1138 17.2174 52.7478 19.2848 51.4078C22.4799 49.3369 25.8815 47.4059 29.5545 46.3176C34.5079 44.8499 34.6 51.8901 38.3507 49.2646C41.4921 47.0656 46.9099 42.0377 50.6297 41.3614C52.9661 40.9366 53.4069 42.5132 54.693 44.0851C57.5477 47.5742 59.5098 46.3747 62.6855 43.3706C71.7968 34.7518 81.0355 26.6583 88.6724 16.7587C89.0314 16.2932 91.9426 12.699 92.0658 14.794C92.3745 20.0409 91.8631 25.1687 93.2714 30.3326C94.4952 34.8199 95.6923 38.5993 97.5133 42.9241C99.1297 46.7632 101.331 40.2451 103.675 38.9056C105.233 38.0151 104.925 37.2705 104.925 40.0665C104.925 43.1091 106.407 40.4248 108.096 38.9056C111.014 36.2789 111.984 34.4085 113.007 39.3521C113.461 41.5473 114.722 45.9338 116.356 47.5678C116.838 48.0499 118.727 43.824 118.946 43.5493C122.298 39.3354 125.653 35.2187 128.858 30.8684C132.101 26.4673 134.434 20.5271 136.672 15.5531C137.875 12.8795 138.543 8.59222 140.646 6.48894C141.282 5.85264 141.248 9.51558 141.271 9.70381C141.81 14.0146 143.13 18.1622 144.263 22.34C146.032 28.8647 148.382 35.3928 149.13 42.1204C149.298 43.6338 155.403 42.9241 156.765 42.9241C157.967 42.9241 159.583 42.6384 160.739 42.9688C161.784 43.2673 160.759 45.5239 161.989 46.139" stroke="#1A6F00" stroke-width="3" stroke-linecap="round"/>
</g>
<defs>
<filter id="filter0_d_37_24" x="0.193848" y="0.914612" width="173.296" height="73.173" filterUnits="userSpaceOnUse" color-interpolation-filters="sRGB">
<feFlood flood-opacity="0" result="BackgroundImageFix"/>
<feColorMatrix in="SourceAlpha" type="matrix" values="0 0 0 0 0 0 0 0 0 0 0 0 0 0 0 0 0 0 127 0" result="hardAlpha"/>
<feOffset dy="6"/>
<feGaussianBlur stdDeviation="5"/>
<feComposite in2="hardAlpha" operator="out"/>
<feColorMatrix type="matrix" values="0 0 0 0 0.101961 0 0 0 0 0.435294 0 0 0 0 0 0 0 0 0.66 0"/>
<feBlend mode="normal" in2="BackgroundImageFix" result="effect1_dropShadow_37_24"/>
<feBlend mode="normal" in="SourceGraphic" in2="effect1_dropShadow_37_24" result="shape"/>
</filter>
</defs>
</svg>
